<svg xmlns="http://www.w3.org/2000/svg" width="16" height="16" version="1">
  <circle cx="8" cy="8" r="7.5" fill="#c96" stroke="#a97038"/>
  <path d="M5.38 9.8l1.47-.18q.07.56.37.85.3.3.74.3.47 0 .79-.36.32-.35.32-.95 0-.57-.3-.9-.31-.34-.75-.34-.3 0-.7.12L7.5 7.1q.61.01.93-.27.33-.28.33-.75 0-.4-.24-.63-.24-.24-.63-.24-.38 0-.66.27-.27.27-.33.78l-1.4-.23q.15-.72.44-1.14.3-.43.82-.67.52-.25 1.17-.25 1.12 0 1.79.7.55.59.55 1.32 0 1.04-1.13 1.65.67.15 1.08.65.4.5.4 1.22 0 1.04-.75 1.77-.76.73-1.89.73-1.07 0-1.77-.61-.7-.62-.82-1.61z"/>
</svg>
