<svg xmlns="http://www.w3.org/2000/svg" width="16" height="16" version="1">
  <circle cx="8" cy="8" r="7.5" fill="silver" stroke="#888"/>
  <path d="M10.65 10.55v1.4h-5.3c.06-.53.23-1.03.52-1.5.29-.48.85-1.1 1.7-1.9.68-.63 1.1-1.05 1.25-1.28.2-.31.31-.62.31-.92 0-.34-.09-.6-.27-.78a1.01 1.01 0 0 0-.75-.27 1 1 0 0 0-.75.28c-.19.2-.3.5-.32.95l-1.5-.15c.08-.83.36-1.43.84-1.8a2.83 2.83 0 0 1 1.77-.53c.77 0 1.39.2 1.83.63.44.41.67.94.67 1.56 0 .35-.07.69-.2 1.01-.12.32-.32.66-.6 1-.18.24-.51.58-.99 1.01-.47.44-.78.73-.9.87a2.6 2.6 0 0 0-.31.42z"/>
</svg>
